<?xml version="1.0" encoding="UTF-8" standalone="no"?>
<!-- Created with Inkscape (http://www.inkscape.org/) -->

<svg
   xmlns:dc="http://purl.org/dc/elements/1.1/"
   xmlns:cc="http://creativecommons.org/ns#"
   xmlns:rdf="http://www.w3.org/1999/02/22-rdf-syntax-ns#"
   xmlns:svg="http://www.w3.org/2000/svg"
   xmlns="http://www.w3.org/2000/svg"
   xmlns:sodipodi="http://sodipodi.sourceforge.net/DTD/sodipodi-0.dtd"
   xmlns:inkscape="http://www.inkscape.org/namespaces/inkscape"
   width="210mm"
   height="297mm"
   viewBox="0 0 210 297"
   version="1.1"
   id="svg8"
   inkscape:version="0.92.3 (2405546, 2018-03-11)"
   sodipodi:docname="player.svg">
  <defs
     id="defs2" />
  <sodipodi:namedview
     id="base"
     pagecolor="#ffffff"
     bordercolor="#666666"
     borderopacity="1.0"
     inkscape:pageopacity="0.0"
     inkscape:pageshadow="2"
     inkscape:zoom="2.8"
     inkscape:cx="209.398"
     inkscape:cy="404.81772"
     inkscape:document-units="mm"
     inkscape:current-layer="layer1"
     showgrid="false"
     inkscape:window-width="1920"
     inkscape:window-height="1021"
     inkscape:window-x="0"
     inkscape:window-y="31"
     inkscape:window-maximized="1"
     inkscape:measure-start="237.891,436.133"
     inkscape:measure-end="0,0" />
  <metadata
     id="metadata5">
    <rdf:RDF>
      <cc:Work
         rdf:about="">
        <dc:format>image/svg+xml</dc:format>
        <dc:type
           rdf:resource="http://purl.org/dc/dcmitype/StillImage" />
        <dc:title />
      </cc:Work>
    </rdf:RDF>
  </metadata>
  <g
     inkscape:label="Layer 1"
     inkscape:groupmode="layer"
     id="layer1">
    <ellipse
       style="fill:#000000;fill-opacity:1;fill-rule:nonzero;stroke-width:0;stroke-miterlimit:4;stroke-dasharray:none"
       id="path3394"
       cx="25.58703"
       cy="204.93399"
       rx="8.4666662"
       ry="3.4745038"
       inkscape:export-filename="/home/nforrer/src/ludumdare/ld42/entities/player/player_sheet.png"
       inkscape:export-xdpi="110.46217"
       inkscape:export-ydpi="110.46217" />
    <path
       style="fill:#800000;fill-opacity:1;fill-rule:nonzero;stroke-width:0;stroke-miterlimit:4;stroke-dasharray:none"
       d="m 31.561014,184.81193 c 3e-6,3.95321 -3.204709,7.15793 -7.157924,7.15793 -3.953215,0 -5.220799,-3.06297 -5.220796,-7.01619 2e-6,-3.95321 1.267585,-7.29966 5.220796,-7.29966 3.953211,0 7.157922,3.20471 7.157924,7.15792 z"
       id="path5285"
       inkscape:connector-curvature="0"
       sodipodi:nodetypes="sssss"
       inkscape:export-filename="/home/nforrer/src/ludumdare/ld42/entities/player/player_sheet.png"
       inkscape:export-xdpi="110.46217"
       inkscape:export-ydpi="110.46217" />
    <circle
       style="fill:#cccccc;fill-opacity:1;fill-rule:nonzero;stroke-width:0;stroke-miterlimit:4;stroke-dasharray:none"
       id="path5290"
       cx="36.096725"
       cy="184.4576"
       r="2.0788691"
       inkscape:export-filename="/home/nforrer/src/ludumdare/ld42/entities/player/player_sheet.png"
       inkscape:export-xdpi="110.46217"
       inkscape:export-ydpi="110.46217" />
    <path
       style="fill:#ffb380;fill-opacity:1;fill-rule:nonzero;stroke-width:0;stroke-miterlimit:4;stroke-dasharray:none"
       d="m 29.188653,172.40406 c 1.880968,3.30119 -1.06702,3.89216 -4.990375,3.89216 -3.923354,0 -5.832644,-3.08008 -5.832644,-6.87953 0,-3.79945 1.90929,-6.87953 5.832644,-6.87953 1.793907,0 3.177662,1.91546 3.035334,3.56716 -0.07444,0.86398 3.508873,2.53036 2.8072,3.19927 -1.285745,1.2257 -1.444807,2.06034 -0.852159,3.10047 z"
       id="path5280"
       inkscape:connector-curvature="0"
       sodipodi:nodetypes="sssssss"
       inkscape:export-filename="/home/nforrer/src/ludumdare/ld42/entities/player/player_sheet.png"
       inkscape:export-xdpi="110.46217"
       inkscape:export-ydpi="110.46217" />
    <circle
       style="fill:#000000;fill-opacity:1;fill-rule:nonzero;stroke-width:0;stroke-miterlimit:4;stroke-dasharray:none"
       id="path5292"
       cx="25.199612"
       cy="166.93205"
       r="0.91415197"
       inkscape:export-filename="/home/nforrer/src/ludumdare/ld42/entities/player/player_sheet.png"
       inkscape:export-xdpi="110.46217"
       inkscape:export-ydpi="110.46217" />
    <ellipse
       cy="167.02393"
       cx="25.349949"
       id="circle5294"
       style="fill:#f2f2f2;fill-opacity:1;fill-rule:nonzero;stroke-width:0;stroke-miterlimit:4;stroke-dasharray:none"
       rx="0.6635868"
       ry="0.65523463"
       inkscape:export-filename="/home/nforrer/src/ludumdare/ld42/entities/player/player_sheet.png"
       inkscape:export-xdpi="110.46217"
       inkscape:export-ydpi="110.46217" />
    <ellipse
       style="fill:#1a1a1a;fill-opacity:1;fill-rule:nonzero;stroke-width:0;stroke-miterlimit:4;stroke-dasharray:none"
       id="path5296"
       cx="27.428535"
       cy="173.40454"
       rx="1.6370258"
       ry="1.4699824"
       inkscape:export-filename="/home/nforrer/src/ludumdare/ld42/entities/player/player_sheet.png"
       inkscape:export-xdpi="110.46217"
       inkscape:export-ydpi="110.46217" />
    <path
       inkscape:export-ydpi="110.46217"
       inkscape:export-xdpi="110.46217"
       inkscape:export-filename="/home/nforrer/src/ludumdare/ld42/entities/player/player_sheet.png"
       sodipodi:nodetypes="sssss"
       inkscape:connector-curvature="0"
       id="path2845"
       d="m 53.835101,184.51362 c 0,3.95321 -1.173086,6.73271 -5.126301,6.73271 -3.953215,0 -5.220799,-3.06297 -5.220796,-7.01619 2e-6,-3.95321 1.267585,-7.29966 5.220796,-7.29966 3.953211,0 5.126301,3.62993 5.126301,7.58314 z"
       style="fill:#800000;fill-opacity:1;fill-rule:nonzero;stroke-width:0;stroke-miterlimit:4;stroke-dasharray:none" />
    <g
       id="g2919"
       transform="translate(-45.735119,-1.3229167)"
       inkscape:export-filename="/home/nforrer/src/ludumdare/ld42/entities/player/player_sheet.png"
       inkscape:export-xdpi="110.46217"
       inkscape:export-ydpi="110.46217">
      <path
         style="fill:#ffb380;fill-opacity:1;fill-rule:nonzero;stroke-width:0;stroke-miterlimit:4;stroke-dasharray:none"
         d="m 93.955625,175.76168 c -1.053909,0.0169 -3.416138,0.76873 -3.902698,-0.53444 -1.317331,-3.52826 -2.758313,-11.49449 4.233427,-11.61822 6.440996,0.15091 6.130766,8.62611 3.768316,12.02896 -0.702541,1.01193 -3.08871,0.12328 -4.099045,0.1237 z"
         id="path2849"
         inkscape:connector-curvature="0"
         sodipodi:nodetypes="cscsc"
         inkscape:export-filename="/home/nforrer/src/ludumdare/ld42/entities/player/head_front.png"
         inkscape:export-xdpi="110.46217"
         inkscape:export-ydpi="110.46217" />
      <circle
         style="fill:#000000;fill-opacity:1;fill-rule:nonzero;stroke-width:0;stroke-miterlimit:4;stroke-dasharray:none"
         id="circle2867"
         cx="91.955757"
         cy="167.9787"
         r="0.91415197"
         inkscape:export-filename="/home/nforrer/src/ludumdare/ld42/entities/player/head_front.png"
         inkscape:export-xdpi="110.46217"
         inkscape:export-ydpi="110.46217" />
      <ellipse
         cy="168.07057"
         cx="92.106094"
         id="ellipse2869"
         style="fill:#f2f2f2;fill-opacity:1;fill-rule:nonzero;stroke-width:0;stroke-miterlimit:4;stroke-dasharray:none"
         rx="0.6635868"
         ry="0.65523463"
         inkscape:export-filename="/home/nforrer/src/ludumdare/ld42/entities/player/head_front.png"
         inkscape:export-xdpi="110.46217"
         inkscape:export-ydpi="110.46217" />
      <circle
         inkscape:export-ydpi="110.46217"
         inkscape:export-xdpi="110.46217"
         inkscape:export-filename="/home/nforrer/src/ludumdare/ld42/entities/player/head_front.png"
         r="0.91415197"
         cy="167.93146"
         cx="96.160744"
         id="circle2871"
         style="fill:#000000;fill-opacity:1;fill-rule:nonzero;stroke-width:0;stroke-miterlimit:4;stroke-dasharray:none" />
      <ellipse
         inkscape:export-ydpi="110.46217"
         inkscape:export-xdpi="110.46217"
         inkscape:export-filename="/home/nforrer/src/ludumdare/ld42/entities/player/head_front.png"
         ry="0.65523463"
         rx="0.6635868"
         style="fill:#f2f2f2;fill-opacity:1;fill-rule:nonzero;stroke-width:0;stroke-miterlimit:4;stroke-dasharray:none"
         id="ellipse2873"
         cx="96.077225"
         cy="168.07344" />
      <ellipse
         style="fill:#1a1a1a;fill-opacity:1;fill-rule:nonzero;stroke-width:0;stroke-miterlimit:4;stroke-dasharray:none"
         id="ellipse2875"
         cx="94.245918"
         cy="173.13727"
         rx="1.6370258"
         ry="1.4699824"
         inkscape:export-filename="/home/nforrer/src/ludumdare/ld42/entities/player/head_front.png"
         inkscape:export-xdpi="110.46217"
         inkscape:export-ydpi="110.46217" />
    </g>
    <path
       style="fill:#ffb380;fill-opacity:1;fill-rule:nonzero;stroke-width:0;stroke-miterlimit:4;stroke-dasharray:none"
       d="m 67.213811,173.8718 c -1.05391,0.0169 -3.41614,0.76873 -3.9027,-0.53444 -1.31733,-3.52826 -2.75831,-11.49449 4.23343,-11.61822 6.44099,0.15091 6.13076,8.62611 3.76831,12.02896 -0.70254,1.01193 -3.08871,0.12328 -4.09904,0.1237 z"
       id="path2901"
       inkscape:connector-curvature="0"
       sodipodi:nodetypes="cscsc"
       inkscape:export-filename="/home/nforrer/src/ludumdare/ld42/entities/player/player_sheet.png"
       inkscape:export-xdpi="110.46217"
       inkscape:export-ydpi="110.46217" />
    <path
       inkscape:export-ydpi="110.46217"
       inkscape:export-xdpi="110.46217"
       inkscape:export-filename="/home/nforrer/src/ludumdare/ld42/entities/player/player_sheet.png"
       sodipodi:nodetypes="sssss"
       inkscape:connector-curvature="0"
       id="path2941"
       d="m 112.94459,184.01012 c 0,3.95321 -3.20471,7.15793 -7.15793,7.15793 -3.95321,0 -5.2208,-3.06297 -5.22079,-7.01619 0,-3.95321 1.26758,-7.29966 5.22079,-7.29966 3.95321,0 7.15792,3.20471 7.15793,7.15792 z"
       style="fill:#800000;fill-opacity:1;fill-rule:nonzero;stroke-width:0;stroke-miterlimit:4;stroke-dasharray:none" />
    <circle
       inkscape:export-ydpi="110.46217"
       inkscape:export-xdpi="110.46217"
       inkscape:export-filename="/home/nforrer/src/ludumdare/ld42/entities/player/player_sheet.png"
       r="2.0788691"
       cy="183.65579"
       cx="117.48029"
       id="circle2943"
       style="fill:#cccccc;fill-opacity:1;fill-rule:nonzero;stroke-width:0;stroke-miterlimit:4;stroke-dasharray:none" />
    <path
       inkscape:export-ydpi="110.46217"
       inkscape:export-xdpi="110.46217"
       inkscape:export-filename="/home/nforrer/src/ludumdare/ld42/entities/player/player_sheet.png"
       sodipodi:nodetypes="sssssss"
       inkscape:connector-curvature="0"
       id="path2945"
       d="m 110.57222,171.60225 c 1.88097,3.30119 -1.06702,3.89216 -4.99037,3.89216 -3.92335,0 -5.832645,-3.08008 -5.832645,-6.87953 0,-3.79945 1.909295,-6.87953 5.832645,-6.87953 1.79391,0 3.52149,1.98223 3.03533,3.56716 -0.40849,1.3317 4.09235,2.60144 3.2081,2.99882 -1.68664,0.75798 -1.8457,2.26079 -1.25306,3.30092 z"
       style="fill:#ffb380;fill-opacity:1;fill-rule:nonzero;stroke-width:0;stroke-miterlimit:4;stroke-dasharray:none" />
    <circle
       inkscape:export-ydpi="110.46217"
       inkscape:export-xdpi="110.46217"
       inkscape:export-filename="/home/nforrer/src/ludumdare/ld42/entities/player/player_sheet.png"
       r="0.91415197"
       cy="166.13025"
       cx="106.58318"
       id="circle2947"
       style="fill:#000000;fill-opacity:1;fill-rule:nonzero;stroke-width:0;stroke-miterlimit:4;stroke-dasharray:none" />
    <ellipse
       inkscape:export-ydpi="110.46217"
       inkscape:export-xdpi="110.46217"
       inkscape:export-filename="/home/nforrer/src/ludumdare/ld42/entities/player/player_sheet.png"
       ry="0.65523463"
       rx="0.6635868"
       style="fill:#f2f2f2;fill-opacity:1;fill-rule:nonzero;stroke-width:0;stroke-miterlimit:4;stroke-dasharray:none"
       id="ellipse2949"
       cx="106.73352"
       cy="166.22212" />
    <ellipse
       style="fill:#ff9a55;fill-opacity:1;fill-rule:nonzero;stroke-width:0;stroke-miterlimit:4;stroke-dasharray:none"
       id="ellipse2958"
       cx="109.0011"
       cy="173.02797"
       rx="1.6370258"
       ry="1.4699824"
       inkscape:export-filename="/home/nforrer/src/ludumdare/ld42/entities/player/player_sheet.png"
       inkscape:export-xdpi="110.46217"
       inkscape:export-ydpi="110.46217" />
    <ellipse
       inkscape:export-ydpi="110.46217"
       inkscape:export-xdpi="110.46217"
       inkscape:export-filename="/home/nforrer/src/ludumdare/ld42/entities/player/player_sheet.png"
       ry="1.4699824"
       rx="1.6370258"
       cy="172.60274"
       cx="108.8121"
       id="ellipse2951"
       style="fill:#1a1a1a;fill-opacity:1;fill-rule:nonzero;stroke-width:0;stroke-miterlimit:4;stroke-dasharray:none" />
    <path
       style="opacity:1;fill:#000000;fill-opacity:1;fill-rule:nonzero;stroke-width:0;stroke-miterlimit:4;stroke-dasharray:none"
       inkscape:transform-center-x="-0.34657797"
       inkscape:transform-center-y="-0.10563485"
       d="m 124.992,168.25187 -2.33254,-2.06773 -3.62705,0.10752 0.247,-1.01191 1.60009,-1.20369 v 0 l 0.006,-2.74057 1.4488,0.39629 0.0467,-1.93578 1.75837,2.61863 1.06924,-2.51296 -0.82107,4.36698 z"
       id="path2964"
       inkscape:connector-curvature="0"
       sodipodi:nodetypes="ccccccccccccc" />
    <path
       style="opacity:1;fill:#ffb380;fill-opacity:1;fill-rule:nonzero;stroke-width:0;stroke-miterlimit:4;stroke-dasharray:none"
       d="m 126.52752,173.73251 c -3.20954,0 -5.81138,-2.60184 -5.81138,-5.81138 0,-3.20954 2.60184,-5.81139 5.81138,-5.81139 2.18163,0.0376 6.18248,3.89407 6.19953,5.60185 0.13147,2.99901 -3.63058,5.92476 -6.19953,6.02092 z"
       id="path2960"
       inkscape:connector-curvature="0"
       sodipodi:nodetypes="csccc" />
    <path
       transform="rotate(34.594923)"
       style="opacity:1;fill:#000000;fill-opacity:1;fill-rule:nonzero;stroke-width:0;stroke-miterlimit:4;stroke-dasharray:none"
       d="m 194.87026,66.455486 c 0,2.446293 2.77782,5.078368 1.61665,5.078371 -0.83597,-0.568669 -2.86768,-2.718042 -2.86768,-5.164343 0,-2.446301 1.72053,-4.880761 2.88171,-4.880752 1.16117,3e-6 -1.63068,2.520432 -1.63068,4.966724 z"
       id="path2967"
       inkscape:connector-curvature="0"
       sodipodi:nodetypes="scscs" />
    <ellipse
       ry="1.3864607"
       rx="0.73499119"
       cy="166.08804"
       cx="129.62572"
       id="ellipse2979"
       style="opacity:1;fill:#333333;fill-opacity:1;fill-rule:nonzero;stroke-width:0;stroke-miterlimit:4;stroke-dasharray:none" />
    <ellipse
       style="opacity:1;fill:#000000;fill-opacity:1;fill-rule:nonzero;stroke-width:0;stroke-miterlimit:4;stroke-dasharray:none"
       id="path2970"
       cx="129.45868"
       cy="165.95441"
       rx="0.73499119"
       ry="1.3864607" />
    <ellipse
       ry="0.90203464"
       rx="0.51783472"
       cy="166.29709"
       cx="129.60495"
       id="ellipse2972"
       style="opacity:1;fill:#ffffff;fill-opacity:1;fill-rule:nonzero;stroke-width:0;stroke-miterlimit:4;stroke-dasharray:none" />
    <ellipse
       style="opacity:1;fill:#000000;fill-opacity:1;fill-rule:nonzero;stroke-width:0;stroke-miterlimit:4;stroke-dasharray:none"
       id="path2974"
       cx="129.22481"
       cy="170.43117"
       rx="1.8040693"
       ry="1.0523738" />
    <path
       style="opacity:1;fill:#373737;fill-opacity:1;fill-rule:nonzero;stroke-width:0;stroke-miterlimit:4;stroke-dasharray:none"
       d="m 126.30636,162.41795 c 0.13053,0.3154 -0.82686,0.84863 -1.35537,1.06735 -0.52851,0.21873 -1.57666,0.4487 -1.1933,-0.17504 -0.13055,-0.3154 0.2589,-0.54795 0.78742,-0.76668 0.52851,-0.21874 1.63072,-0.44104 1.76125,-0.12565 z"
       id="path2976"
       inkscape:connector-curvature="0"
       sodipodi:nodetypes="cscscc" />
    <path
       style="opacity:1;fill:#000000;fill-opacity:1;fill-rule:nonzero;stroke-width:0;stroke-miterlimit:4;stroke-dasharray:none"
       d="m 107.60937,162.76389 c -1e-5,0.59043 -1.12931,1.06907 -2.52236,1.06907 -1.39305,0 -3.85869,0.55703 -3.8587,-0.0334 0,-0.59044 2.46564,-2.10475 3.8587,-2.10475 1.39306,0 2.52236,0.47864 2.52236,1.06908 z"
       id="path2988"
       inkscape:connector-curvature="0"
       sodipodi:nodetypes="cscsc" />
  </g>
</svg>
