<?xml version="1.0" encoding="UTF-8" standalone="no"?>
<!-- Created with Inkscape (http://www.inkscape.org/) -->

<svg
   xmlns:dc="http://purl.org/dc/elements/1.1/"
   xmlns:cc="http://creativecommons.org/ns#"
   xmlns:rdf="http://www.w3.org/1999/02/22-rdf-syntax-ns#"
   xmlns:svg="http://www.w3.org/2000/svg"
   xmlns="http://www.w3.org/2000/svg"
   xmlns:sodipodi="http://sodipodi.sourceforge.net/DTD/sodipodi-0.dtd"
   xmlns:inkscape="http://www.inkscape.org/namespaces/inkscape"
   width="210mm"
   height="297mm"
   viewBox="0 0 210 297"
   version="1.1"
   id="svg921"
   inkscape:version="0.92.3 (2405546, 2018-03-11)"
   sodipodi:docname="rock.svg"
   inkscape:export-filename="/home/nforrer/src/ludumdare/ld42/rock.png"
   inkscape:export-xdpi="22.335354"
   inkscape:export-ydpi="22.335354">
  <defs
     id="defs915" />
  <sodipodi:namedview
     id="base"
     pagecolor="#ffffff"
     bordercolor="#666666"
     borderopacity="1.0"
     inkscape:pageopacity="0.0"
     inkscape:pageshadow="2"
     inkscape:zoom="1.979899"
     inkscape:cx="314.84042"
     inkscape:cy="590.50376"
     inkscape:document-units="mm"
     inkscape:current-layer="layer1"
     showgrid="false"
     inkscape:window-width="1920"
     inkscape:window-height="1021"
     inkscape:window-x="0"
     inkscape:window-y="31"
     inkscape:window-maximized="1" />
  <metadata
     id="metadata918">
    <rdf:RDF>
      <cc:Work
         rdf:about="">
        <dc:format>image/svg+xml</dc:format>
        <dc:type
           rdf:resource="http://purl.org/dc/dcmitype/StillImage" />
        <dc:title></dc:title>
      </cc:Work>
    </rdf:RDF>
  </metadata>
  <g
     inkscape:label="Layer 1"
     inkscape:groupmode="layer"
     id="layer1">
    <path
       style="fill:#241f1c;fill-opacity:1;fill-rule:nonzero;stroke-width:0;stroke-miterlimit:4;stroke-dasharray:none"
       d="m 128.55664,140.78097 c 0,21.32948 -9.54015,31.67144 -30.869632,31.67144 -8.374495,0 -29.642537,1.24485 -35.366683,-0.79851 -8.855015,-3.161 -0.431785,-11.58464 -3.921937,-24.45846 -4.410034,-16.26691 -3.207299,-21.50504 6.979606,-23.83634 2.704994,-0.61905 8.456594,-8.50327 12.931973,-8.50327 15.335231,0 23.540313,-0.68791 27.402253,5.0623 4.65153,6.92587 22.84442,14.86859 22.84442,20.86284 z"
       id="path1468"
       inkscape:connector-curvature="0"
       sodipodi:nodetypes="ssssssss"
       inkscape:export-xdpi="22.335354"
       inkscape:export-ydpi="22.335354" />
    <path
       style="fill:#6c5d53;fill-opacity:1;fill-rule:nonzero;stroke-width:0;stroke-miterlimit:4;stroke-dasharray:none"
       d="m 104.36874,120.60211 c 1e-5,1.99272 -1.4176,2.80633 -15.234356,2.40543 -4.292188,-0.12454 -14.470049,2.60834 -17.855502,1.8245 -1.50239,-0.34786 1.55206,-3.61742 1.552061,-4.22993 -2e-6,-1.99272 10.103866,-4.81085 16.303441,-4.81085 6.199573,0 15.234366,2.81813 15.234356,4.81085 z"
       id="path1473"
       inkscape:connector-curvature="0"
       sodipodi:nodetypes="csscsc"
       inkscape:export-xdpi="22.335354"
       inkscape:export-ydpi="22.335354" />
    <path
       style="fill:#6c5d53;fill-opacity:1;fill-rule:nonzero;stroke-width:0;stroke-miterlimit:4;stroke-dasharray:none"
       d="m 122.27581,136.97237 c 0,2.62006 -7.19206,0.735 -10.62397,0.735 -3.43191,0 -5.61326,-2.19378 -6.21402,-4.74404 -3.10054,-13.16192 2.64848,-6.21401 6.08039,-6.21401 3.4319,0 10.75759,7.603 10.7576,10.22305 z"
       id="path1478"
       inkscape:connector-curvature="0"
       sodipodi:nodetypes="sssss"
       inkscape:export-xdpi="22.335354"
       inkscape:export-ydpi="22.335354" />
  </g>
</svg>
